<?xml version="1.0" standalone="no"?>
<!DOCTYPE svg PUBLIC "-//W3C//DTD SVG 20010904//EN"
 "http://www.w3.org/TR/2001/REC-SVG-20010904/DTD/svg10.dtd">
<svg version="1.0" xmlns="http://www.w3.org/2000/svg"
 width="646.000000pt" height="646.000000pt" viewBox="0 0 646.000000 646.000000"
 preserveAspectRatio="xMidYMid meet">
<metadata>
Created by potrace 1.14, written by Peter Selinger 2001-2017
</metadata>
<g transform="translate(0.000000,646.000000) scale(0.100000,-0.100000)"
fill="#000000" stroke="none">
<path d="M1707 6220 l-759 -5 -29 -33 -29 -32 0 -2271 0 -2271 34 -34 34 -34
2270 0 2270 0 31 26 c17 14 35 42 41 62 8 26 10 717 8 2277 -3 2067 -4 2242
-20 2263 -9 13 -27 31 -40 40 -21 16 -143 17 -1538 17 -833 0 -1856 -2 -2273
-5z m3350 -224 c175 -90 198 -273 73 -588 -130 -327 -488 -903 -889 -1428
l-95 -125 -13 -85 c-19 -126 -28 -541 -14 -690 16 -170 38 -315 67 -440 108
-460 290 -723 529 -766 22 -3 34 -9 27 -11 -29 -11 -144 20 -199 54 -190 113
-348 375 -449 743 -70 253 -103 485 -113 786 l-6 192 -96 -117 c-240 -291
-536 -597 -652 -674 -134 -89 -238 -89 -329 0 -78 76 -87 206 -29 423 17 63
49 183 71 265 55 200 68 395 27 395 -23 0 -153 -67 -238 -123 -110 -73 -315
-238 -458 -370 l-114 -104 -33 -132 c-115 -455 -246 -802 -381 -1002 -60 -89
-163 -187 -228 -219 -67 -32 -168 -38 -235 -14 -187 67 -231 256 -121 522 103
250 409 657 762 1017 l128 130 40 165 c64 270 103 470 105 545 l1 70 -52 3
c-97 6 -269 -67 -468 -198 -253 -167 -367 -344 -352 -550 4 -53 2 -68 -4 -50
-6 13 -13 58 -16 100 -14 192 92 376 321 555 273 213 514 305 625 240 65 -38
76 -65 75 -173 -2 -82 -36 -361 -60 -481 l-7 -34 94 75 c286 229 461 325 615
335 66 5 88 2 125 -14 136 -61 211 -199 211 -388 -1 -143 -27 -281 -102 -539
-11 -38 -18 -71 -16 -73 13 -13 423 449 655 737 208 257 194 233 230 410 151
734 425 1375 672 1571 69 54 144 80 219 76 36 -2 80 -11 97 -21z"/>
<path d="M4884 5732 c-105 -76 -277 -369 -404 -687 -66 -165 -164 -445 -156
-445 2 0 62 87 133 193 292 432 457 746 488 930 7 46 -6 48 -61 9z"/>
<path d="M1803 2956 c-239 -274 -416 -549 -446 -693 -10 -45 -9 -56 3 -64 74
-47 238 155 366 451 41 96 146 372 142 375 -2 1 -31 -30 -65 -69z"/>
<path d="M3804 1265 c-96 -21 -172 -63 -244 -135 -74 -74 -114 -148 -136 -248
-17 -85 -17 -130 1 -217 22 -102 59 -171 134 -246 280 -280 770 -143 850 239
78 376 -233 688 -605 607z m217 -181 c41 -12 66 -28 105 -68 67 -69 89 -131
88 -246 -1 -147 -58 -245 -172 -298 -48 -21 -64 -24 -140 -20 -98 5 -147 25
-198 80 -63 66 -87 138 -86 254 2 153 79 264 212 305 43 13 134 10 191 -7z"/>
<path d="M4921 1269 c-82 -14 -193 -72 -254 -132 -194 -194 -195 -529 -2 -722
193 -193 538 -192 716 3 46 50 99 137 99 162 0 6 -42 10 -114 10 -105 0 -115
-2 -121 -20 -10 -32 -92 -97 -140 -110 -61 -17 -169 -8 -220 18 -116 59 -179
206 -155 357 18 113 67 187 154 233 44 23 63 27 136 27 68 0 93 -5 126 -22 40
-22 104 -85 104 -103 0 -6 48 -10 116 -10 132 0 129 -3 76 89 -44 78 -100 129
-186 171 -113 55 -211 69 -335 49z"/>
<path d="M2250 770 l0 -500 105 0 105 0 0 500 0 500 -105 0 -105 0 0 -500z"/>
<path d="M990 770 l0 -490 95 0 95 0 2 318 3 317 131 -315 130 -315 75 -3 75
-3 129 316 130 316 3 -315 2 -316 100 0 100 0 0 490 0 490 -113 0 -112 0 -154
-360 c-85 -198 -157 -360 -160 -360 -3 0 -75 162 -160 360 l-153 360 -109 0
-109 0 0 -490z"/>
<path d="M2620 1180 l0 -80 220 -2 219 -3 -219 -330 -219 -330 -1 -77 0 -78
335 0 335 0 0 84 0 84 -220 -5 c-121 -4 -220 -3 -220 1 0 3 99 155 220 336
l220 330 0 75 0 75 -335 0 -335 0 0 -80z"/>
</g>
</svg>
