<svg id="visual" viewBox="0 0 960 540" width="960" height="540" xmlns="http://www.w3.org/2000/svg" xmlns:xlink="http://www.w3.org/1999/xlink" version="1.1"><rect x="0" y="0" width="960" height="540" fill="#FFFFFF"></rect><defs><linearGradient id="grad1_0" x1="43.8%" y1="0%" x2="100%" y2="100%"><stop offset="14.444444444444446%" stop-color="#fbae3c" stop-opacity="1"></stop><stop offset="85.55555555555554%" stop-color="#fbae3c" stop-opacity="1"></stop></linearGradient></defs><defs><linearGradient id="grad1_1" x1="43.8%" y1="0%" x2="100%" y2="100%"><stop offset="14.444444444444446%" stop-color="#fbae3c" stop-opacity="1"></stop><stop offset="85.55555555555554%" stop-color="#ffc880" stop-opacity="1"></stop></linearGradient></defs><defs><linearGradient id="grad1_2" x1="43.8%" y1="0%" x2="100%" y2="100%"><stop offset="14.444444444444446%" stop-color="#ffe3bf" stop-opacity="1"></stop><stop offset="85.55555555555554%" stop-color="#ffc880" stop-opacity="1"></stop></linearGradient></defs><defs><linearGradient id="grad1_3" x1="43.8%" y1="0%" x2="100%" y2="100%"><stop offset="14.444444444444446%" stop-color="#ffe3bf" stop-opacity="1"></stop><stop offset="85.55555555555554%" stop-color="#ffffff" stop-opacity="1"></stop></linearGradient></defs><defs><linearGradient id="grad2_0" x1="0%" y1="0%" x2="56.3%" y2="100%"><stop offset="14.444444444444446%" stop-color="#fbae3c" stop-opacity="1"></stop><stop offset="85.55555555555554%" stop-color="#fbae3c" stop-opacity="1"></stop></linearGradient></defs><defs><linearGradient id="grad2_1" x1="0%" y1="0%" x2="56.3%" y2="100%"><stop offset="14.444444444444446%" stop-color="#ffc880" stop-opacity="1"></stop><stop offset="85.55555555555554%" stop-color="#fbae3c" stop-opacity="1"></stop></linearGradient></defs><defs><linearGradient id="grad2_2" x1="0%" y1="0%" x2="56.3%" y2="100%"><stop offset="14.444444444444446%" stop-color="#ffc880" stop-opacity="1"></stop><stop offset="85.55555555555554%" stop-color="#ffe3bf" stop-opacity="1"></stop></linearGradient></defs><defs><linearGradient id="grad2_3" x1="0%" y1="0%" x2="56.3%" y2="100%"><stop offset="14.444444444444446%" stop-color="#ffffff" stop-opacity="1"></stop><stop offset="85.55555555555554%" stop-color="#ffe3bf" stop-opacity="1"></stop></linearGradient></defs><g transform="translate(960, 0)"><path d="M0 420C-34.5 405 -69.1 389.9 -100.7 375.7C-132.3 361.6 -160.9 348.3 -195.5 338.6C-230.1 328.9 -270.5 322.8 -301.9 301.9C-333.4 281 -355.8 245.4 -361.1 208.5C-366.4 171.6 -354.6 133.6 -368 98.6C-381.5 63.7 -420.2 31.8 -459 0L0 0Z" fill="#fff1df"></path><path d="M0 315C-25.9 303.7 -51.8 292.4 -75.5 281.8C-99.2 271.2 -120.7 261.2 -146.6 254C-172.5 246.7 -202.9 242.1 -226.5 226.5C-250 210.8 -266.9 184 -270.8 156.4C-274.8 128.7 -265.9 100.2 -276 74C-286.1 47.7 -315.2 23.9 -344.2 0L0 0Z" fill="#ffd69f"></path><path d="M0 210C-17.3 202.5 -34.5 195 -50.3 187.9C-66.1 180.8 -80.5 174.2 -97.7 169.3C-115 164.5 -135.2 161.4 -151 151C-166.7 140.5 -177.9 122.7 -180.6 104.3C-183.2 85.8 -177.3 66.8 -184 49.3C-190.7 31.8 -210.1 15.9 -229.5 0L0 0Z" fill="#ffbb5f"></path><path d="M0 105C-8.6 101.2 -17.3 97.5 -25.2 93.9C-33.1 90.4 -40.2 87.1 -48.9 84.7C-57.5 82.2 -67.6 80.7 -75.5 75.5C-83.3 70.3 -89 61.3 -90.3 52.1C-91.6 42.9 -88.6 33.4 -92 24.7C-95.4 15.9 -105.1 8 -114.7 0L0 0Z" fill="#fbae3c"></path></g><g transform="translate(0, 540)"><path d="M0 -438C45.7 -453.9 91.5 -469.9 118.8 -443.4C146.1 -416.8 155.1 -347.9 186.5 -323C217.9 -298.2 271.8 -317.4 303.3 -303.3C334.9 -289.3 344 -241.9 352.5 -203.5C360.9 -165.1 368.6 -135.7 385.4 -103.3C402.2 -70.8 428.1 -35.4 454 0L0 0Z" fill="#fff1df"></path><path d="M0 -328.5C34.3 -340.5 68.6 -352.4 89.1 -332.5C109.6 -312.6 116.3 -260.9 139.9 -242.3C163.4 -223.6 203.9 -238.1 227.5 -227.5C251.2 -217 258 -181.4 264.4 -152.6C270.7 -123.8 276.5 -101.8 289.1 -77.5C301.7 -53.1 321.1 -26.6 340.5 0L0 0Z" fill="#ffd69f"></path><path d="M0 -219C22.9 -227 45.7 -234.9 59.4 -221.7C73.1 -208.4 77.5 -173.9 93.2 -161.5C109 -149.1 135.9 -158.7 151.7 -151.7C167.4 -144.6 172 -120.9 176.2 -101.8C180.5 -82.6 184.3 -67.8 192.7 -51.6C201.1 -35.4 214.1 -17.7 227 0L0 0Z" fill="#ffbb5f"></path><path d="M0 -109.5C11.4 -113.5 22.9 -117.5 29.7 -110.8C36.5 -104.2 38.8 -87 46.6 -80.8C54.5 -74.5 68 -79.4 75.8 -75.8C83.7 -72.3 86 -60.5 88.1 -50.9C90.2 -41.3 92.2 -33.9 96.4 -25.8C100.6 -17.7 107 -8.9 113.5 0L0 0Z" fill="#fbae3c"></path></g></svg>